<svg xmlns="http://www.w3.org/2000/svg" viewBox="0 0 120 100" width="120" height="100" role="img" aria-label="Butterfly logo">
  <defs>
    <linearGradient id="wing" x1="0" y1="0" x2="1" y2="1">
      <stop offset="0" stop-color="#2BB3A3"/>
      <stop offset="0.55" stop-color="#8B5CF6"/>
      <stop offset="1" stop-color="#F472B6"/>
    </linearGradient>
    <g id="half">
      <path d="M58 48 C46 10 8 4 8 34 C8 52 34 58 58 50 Z" fill="url(#wing)"/>
      <path d="M58 54 C40 54 20 64 26 84 C32 98 54 86 58 62 Z" fill="url(#wing)" opacity="0.8"/>
      <circle cx="30" cy="30" r="5" fill="#ffffff" opacity="0.45"/>
      <circle cx="35" cy="76" r="3.2" fill="#ffffff" opacity="0.4"/>
    </g>
  </defs>
  <use href="#half"/>
  <use href="#half" transform="translate(120 0) scale(-1 1)"/>
  <path d="M60 32 V78" stroke="#2A1B3D" stroke-width="4" stroke-linecap="round"/>
  <path d="M60 34 C58 24 52 18 46 16 M60 34 C62 24 68 18 74 16" stroke="#2A1B3D" stroke-width="2" fill="none" stroke-linecap="round"/>
</svg>
